# xmcd CD database file
# Copyright (C) 1993-1998 Ti Kan
# 
# Track frame offsets:
#     183
#     18795
#     34445
#     48873
#     66770
#     81215
#     98798
#     112163
#     126775
#     143430
#     159068
#     174930
#     189155
#     203428
#     216490
#     232325
# 
# Disc length: 3311 seconds
# 
# Revision: 1
# Processed by: cddbd v1.4b41PL1 Copyright (c) Steve Scherf et al.
# Submitted via: DiscPlay 4.0.4
# 
DISCID=d00ced10
DTITLE=Diverse dt. - B   renstark Cd1
DYEAR=1900
DGENRE=
TTITLE0=Wir zwei allein
TTITLE1=Ich habe Dich geliebt
TTITLE2=Da war das Feuer einer Sommernacht
TTITLE3=Solitaire
TTITLE4=Ich bin verliebt in Dich
TTITLE5=Schenk mir
TTITLE6=Das Santa Maria der Hirten
TTITLE7=I hab di halt unheimlich gern
TTITLE8=Piano, Piano
TTITLE9=L more
TTITLE10=Kinder der Sterne
TTITLE11=Dieses eine mal
TTITLE12=Wilde Tr ume
TTITLE13=Pan Phantasie
TTITLE14=Wilde Orchidee
TTITLE15=Junger Adler
EXTD=
EXTT0=David Hasselhoff/Gwen
EXTT1=Nicole
EXTT2=Kristina Bach
EXTT3=Tony Christie
EXTT4=G.G.Anderson
EXTT5=Brunner and Brunner
EXTT6=Die Sch fer
EXTT7=Orig. Naabtal Duo
EXTT8=Fernando Express
EXTT9=Roberto Sacc 
EXTT10=Bianca
EXTT11=Die blauen Engel
EXTT12=Michelle
EXTT13=Edward Simoni
EXTT14=Die Flippers
EXTT15=Tom Astor
PLAYORDER=
